/* XPM */
static char *_580751045307[] = {
/* columns rows colors chars-per-pixel */
"64 64 65 1 ",
"  c #000000",
". c #0B0B00",
"X c #141400",
"o c #1C1C00",
"O c #232300",
"+ c #2B2B00",
"@ c #333300",
"# c #3B3B01",
"$ c #444400",
"% c #4C4C00",
"& c #535300",
"* c #5B5B00",
"= c #646400",
"- c #6B6B00",
"; c #626209",
": c #6D6D0C",
"> c #737300",
", c #7C7C00",
"< c #77770D",
"1 c #636311",
"2 c #828200",
"3 c #8B8B00",
"4 c #949400",
"5 c #9C9C00",
"6 c #898915",
"7 c #A4A400",
"8 c #ACAC00",
"9 c #B3B300",
"0 c #BCBC00",
"q c #BEBE0E",
"w c #B2B214",
"e c #ACAC27",
"r c #B0B026",
"t c #C4C400",
"y c #CBCB00",
"u c #C6C60C",
"i c #D2D200",
"p c #DBDB00",
"a c #DFDF19",
"s c #E5E500",
"d c #ECEC00",
"f c #ECEC09",
"g c #F4F400",
"h c #FFFF00",
"j c #FFFF0A",
"k c #E1E111",
"l c #FFFF15",
"z c #FFFF1A",
"x c #D3D328",
"c c #FFFF25",
"v c #FEFE2B",
"b c #E4E434",
"n c #EBEB34",
"m c #E3E339",
"M c #ECEC3B",
"N c #F4F436",
"B c #FCFC32",
"V c #FFFF3C",
"C c #D7D740",
"Z c #FFFF44",
"A c #FFFF4D",
"S c #FBFB52",
"D c #FFFF5E",
"F c #FFFF61",
"G c None",
/* pixels */
"GGGGGGGGGGGGGGGGGGGGGGGGGG4tttyissy*O GGGGGGGGGGGGGGGGGGGGGGGGGG",
"GGGGGGGGGGGGGGGGGGGGGG   .%5ihhhpt4*O     GGGGGGGGGGGGGGGGGGGGGG",
"GGGGGGGGGGGGGGGGGGGG        X2y%O.          GGGGGGGGGGGGGGGGGGGG",
"GGGGGGGGGGGGGGGGGG           -8              XGGGGGGGGGGGGGGGGGG",
"GGGGGGGGGGGGGGGG             33              X>%GGGGGGGGGGGGGGGG",
"GGGGGGGGGGGGGG               8-               X-& GGGGGGGGGGGGGG",
"GGGGGGGGGGGGG               .0&                .==.GGGGGGGGGGGGG",
"GGGGGGGGGGG                 Xy@                  %>O GGGGGGGGGGG",
"GGGGGGGGGG                 .:a#                   @5-.GGGGGGGGGG",
"GGGGGGGGG                 #rSFC1.                  >h5@GGGGGGGGG",
"GGGGGGGG                O6CDFFFSe@                 -hhy3GGGGGGGG",
"GGGGGGGO%             .;xAAAAAAASb<X               -hhhhgGGGGGGG",
"GGGGGGG55            #wvVVVVVVVVVZBq$              -hhhhhGGGGGGG",
"GGGGGGth3          O3fcvcvccvvvvvvvld3O            -hhhhhhGGGGGG",
"GGGGGihh>        .=ihjlllllzlzzzzzzjhhy&oooOO+@@###4hhhhhhhGGGGG",
"GGGGGghh5**=-->>,9hhhjhhjhjjhjjjjjjhhhhgyyyyyyyttttihhhhhhhGGGGG",
"GGGGshhd0999877750hhhhhhhhhhhhhhhhhhhhhy#@++OOooXXXothhhhhhhGGGG",
"GGGGhhh3.  .     +dhhhhhhhhhhhhhhhhhhhh,            %ghhhhhhhGGG",
"GGGphhiO         .9hhhhhhhhhhhhhhhhhhhs+             5hhhhhhhGGG",
"GGGghh>           -hhhhhhhhhhhhhhhhhhh8              +phhhhhhGGG",
"GGihhtX           +dhhhhhhhhhhhhhhhhhh&               >hhhhhhhGG",
"GGghg*             8hhhhhhhhhhhhhhhhhiX               XthhhhhhGG",
"Gyhh9.             -hhhhhhhhhhhhhhhhh2                 %ghhhhhhG",
"Gdhd$              +shhhhhhhhhhhhhhhd@                  5hhhhhhG",
"Ggh5                8hjljjhhhhhhhhhh9                   +phhhhhG",
"Ggs@                =jvvcczljjjjhhhh*                    >hhhhhG",
">g2                 OkAAZVVBvcccjhhio                    Xyhhhgy",
"$i&                 .unmMMMNNNvBjhh5                     oy4-*$O",
" 34                 &y@OO+@##$%&**3tO                    -9.    ",
" #yo               Xt-            .74                   .0=     ",
" .0=               >0.             @i$                  %yo     ",
"  >8              Oi%               >tX                 72      ",
"  +y@             47                .92                @y+      ",
"   7,            #i@                 #i#               37       ",
"   *t.           83                   20.             oy$       ",
"   oy$          &yO                   X0>             -0.       ",
"    35.        Xt-                     %i@           .0=        ",
"    #sy0852,=&$20X                      38.          %to        ",
"G   .0hhhhhhhhhd%                       ot-OO+++@@@@#82        G",
"G    =hhhhhhhhhd#                        -gssdddddgggd@        G",
"G    $ghhhhhhhhh7                        7hhhhhhhhhhhsO        G",
"G    +shhhhhhhhhg&                      *ghhhhhhhhhhhg#        G",
"GG   Xihhhhhhhhhh0X                    oyhhhhhhhhhhhhh&       GG",
"GG    9hhhhhhhhhhh=                    2hhhhhhhhhhhhhh-       GG",
"GGG   4hhhhhhhhhhhio                  #shhhhhhhhhhhhhh2      GGG",
"GGG   -hhhhhhhhhhhh2                 .8hhhhhhhhhhhhhhh5      GGG",
"GGGG  %hhhhhhhhhhhhs@                *hhhhhhhhhhhhhhhh0     GGGG",
"GGGG  +dhhhhhhhhhhhh7               Oihhhhhhhhhhhhhhhhy.    GGGG",
"GGGGG %shhhhhhhhhhhhg$              3hhhhhhhhhhhhhhhhhd&X  GGGGG",
"GGGGGX524hhhhhhhhhhhh0X   .   .  . $dhhhhhhhhhhhhhhhhg0yt+ GGGGG",
"GGGGGG.  >ghhhhhhhhhhh9888898999999phhhhhhhhhhhhhhhhs=.X@XGGGGGG",
"GGGGGGG   &phhhhhhhhp-=--=====**=**2dhhhhhhhhhhhhhh0#    GGGGGGG",
"GGGGGGG    @thhhhhhd%               *shhhhhhhhhhhg3o     GGGGGGG",
"GGGGGGGG    O8hhhhg-                 $ihhhhhhhhhp*      GGGGGGGG",
"GGGGGGGGG    X2ghh2                   @yhhhhhhh9+      GGGGGGGGG",
"GGGGGGGGGG     -d7.                    O0hhhhd,X      GGGGGGGGGG",
"GGGGGGGGGGG     38o                     o7hhi%       GGGGGGGGGGG",
"GGGGGGGGGGGGG   o70@                     oytO      GGGGGGGGGGGGG",
"GGGGGGGGGGGGGG   X3y$                   .3t+      GGGGGGGGGGGGGG",
"GGGGGGGGGGGGGGGG   -i=                 .3t+     GGGGGGGGGGGGGGGG",
"GGGGGGGGGGGGGGGGGG  &i,.              .3t+    GGGGGGGGGGGGGGGGGG",
"GGGGGGGGGGGGGGGGGGGG #t4.            .3t+   GGGGGGGGGGGGGGGGGGGG",
"GGGGGGGGGGGGGGGGGGGGGG%7X           .3t@  GGGGGGGGGGGGGGGGGGGGGG",
"GGGGGGGGGGGGGGGGGGGGGGGGGG          XiGGGGGGGGGGGGGGGGGGGGGGGGGG"
};
